<?xml version="1.0" encoding="UTF-8" standalone="no"?>
<svg
   xmlns:dc="http://purl.org/dc/elements/1.1/"
   xmlns:cc="http://creativecommons.org/ns#"
   xmlns:rdf="http://www.w3.org/1999/02/22-rdf-syntax-ns#"
   xmlns:svg="http://www.w3.org/2000/svg"
   xmlns="http://www.w3.org/2000/svg"
   xmlns:sodipodi="http://sodipodi.sourceforge.net/DTD/sodipodi-0.dtd"
   xmlns:inkscape="http://www.inkscape.org/namespaces/inkscape"
   width="100%"
   height="100%"
   viewBox="0 0 2225 597"
   version="1.1"
   xml:space="preserve"
   style="fill-rule:evenodd;clip-rule:evenodd;stroke-linejoin:round;stroke-miterlimit:2;"
   id="svg32"
   sodipodi:docname="header - Copy (2).svg"
   inkscape:version="0.92.5 (2060ec1f9f, 2020-04-08)"><metadata
   id="metadata38"><rdf:RDF><cc:Work
       rdf:about=""><dc:format>image/svg+xml</dc:format><dc:type
         rdf:resource="http://purl.org/dc/dcmitype/StillImage" /></cc:Work></rdf:RDF></metadata><defs
   id="defs36" /><sodipodi:namedview
   pagecolor="#ffffff"
   bordercolor="#666666"
   borderopacity="1"
   objecttolerance="10"
   gridtolerance="10"
   guidetolerance="10"
   inkscape:pageopacity="0"
   inkscape:pageshadow="2"
   inkscape:window-width="1858"
   inkscape:window-height="1057"
   id="namedview34"
   showgrid="false"
   inkscape:zoom="0.23072009"
   inkscape:cx="672.77799"
   inkscape:cy="324.82938"
   inkscape:window-x="1912"
   inkscape:window-y="-8"
   inkscape:window-maximized="1"
   inkscape:current-layer="g30" />
    <g
   transform="matrix(1,0,0,1,-3994.15,-4436.86)"
   id="g30">
        <g
   transform="matrix(1,0,0,1,1999.53,1442.29)"
   id="g8">
            <g
   aria-label="Lecture"
   style="font-weight:600;font-size:300px;font-family:Rubik-SemiBold, Rubik"
   id="text2"><path
     d="m 2617.22,3397.72 q -3.3,0 -5.4,-2.1 -2.1,-2.1 -2.1,-5.4 v -195 q 0,-3.3 2.1,-5.4 2.1,-2.1 5.4,-2.1 h 33.3 q 3.3,0 5.4,2.1 2.1,2.1 2.1,5.4 v 162.3 h 93 q 3.3,0 5.4,2.1 2.1,2.1 2.1,5.4 v 25.2 q 0,3.3 -2.1,5.4 -2.1,2.1 -5.4,2.1 z"
     style="font-weight:600;font-size:300px;font-family:Rubik-SemiBold, Rubik"
     id="path830" /><path
     d="m 2850.6294,3400.72 q -34.5,0 -54.9,-19.2 -20.1,-19.2 -21.3,-55.8 0,-2.4 0,-6.3 0,-4.2 0,-6.6 1.2,-23.1 10.5,-39.6 9.3,-16.8 26.1,-25.5 16.8,-9 39.3,-9 25.2,0 42,10.5 17.1,10.2 25.5,28.2 8.7,17.7 8.7,40.8 v 6.9 q 0,3 -2.4,5.1 -2.1,2.1 -5.1,2.1 h -98.1 q 0,0.3 0,1.2 0,0.6 0,1.2 0.3,9.6 3.6,17.7 3.6,7.8 9.9,12.6 6.6,4.8 15.6,4.8 7.5,0 12.3,-2.1 4.8,-2.1 7.8,-5.1 3.3,-3 4.8,-5.1 2.7,-3 4.2,-3.6 1.8,-0.9 5.4,-0.9 h 31.2 q 3,0 4.8,1.8 2.1,1.5 1.8,4.5 -0.3,4.8 -5.1,12 -4.5,6.9 -13.5,13.8 -9,6.6 -22.5,11.1 -13.2,4.5 -30.6,4.5 z m -29.7,-95.7 h 58.8 v -0.6 q 0,-10.8 -3.6,-18.6 -3.3,-8.1 -9.9,-12.6 -6.6,-4.5 -15.9,-4.5 -9.3,0 -15.9,4.5 -6.6,4.5 -10.2,12.6 -3.3,7.8 -3.3,18.6 z"
     style="font-weight:600;font-size:300px;font-family:Rubik-SemiBold, Rubik"
     id="path832" /><path
     d="m 3026.1106,3400.72 q -21.9,0 -38.7,-8.1 -16.5,-8.1 -26.1,-23.4 -9.6,-15.6 -10.5,-37.2 -0.3,-4.8 -0.3,-12 0,-7.5 0.3,-12.3 0.9,-21.9 10.2,-37.2 9.6,-15.6 26.4,-23.7 16.8,-8.1 38.7,-8.1 20.1,0 34.2,5.7 14.1,5.4 23.1,13.8 9,8.4 13.2,17.7 4.5,9 4.8,15.9 0.3,3 -2.1,5.4 -2.1,2.1 -5.1,2.1 h -32.1 q -3,0 -4.8,-1.5 -1.5,-1.8 -3,-4.8 -4.2,-10.5 -10.8,-15 -6.6,-4.5 -16.5,-4.5 -13.5,0 -21.3,8.7 -7.8,8.7 -8.4,27 -0.3,11.7 0,21.3 0.9,18.6 8.4,27 7.8,8.4 21.3,8.4 10.5,0 16.8,-4.5 6.3,-4.5 10.5,-15 1.2,-3 3,-4.5 1.8,-1.8 4.8,-1.8 h 32.1 q 3,0 5.1,2.4 2.4,2.1 2.1,5.1 -0.3,5.1 -3,12 -2.4,6.9 -8.1,14.1 -5.4,7.2 -14.1,13.5 -8.7,6 -21.3,9.9 -12.3,3.6 -28.8,3.6 z"
     style="font-weight:600;font-size:300px;font-family:Rubik-SemiBold, Rubik"
     id="path834" /><path
     d="m 3205.8341,3397.72 q -18.6,0 -31.8,-6 -13.2,-6.3 -20.1,-19.2 -6.6,-12.9 -6.6,-32.4 v -63 h -23.4 q -3.3,0 -5.4,-2.1 -2.1,-2.1 -2.1,-5.4 v -20.4 q 0,-3.3 2.1,-5.4 2.1,-2.1 5.4,-2.1 h 23.4 v -49.5 q 0,-3.3 2.1,-5.4 2.4,-2.1 5.4,-2.1 h 29.4 q 3.3,0 5.4,2.1 2.1,2.1 2.1,5.4 v 49.5 h 37.5 q 3,0 5.1,2.1 2.1,2.1 2.1,5.4 v 20.4 q 0,3.3 -2.1,5.4 -2.1,2.1 -5.1,2.1 h -37.5 v 59.4 q 0,11.4 3.9,18 4.2,6.3 14.4,6.3 h 21.9 q 3,0 5.1,2.1 2.1,2.1 2.1,5.1 v 22.2 q 0,3.3 -2.1,5.4 -2.1,2.1 -5.1,2.1 z"
     style="font-weight:600;font-size:300px;font-family:Rubik-SemiBold, Rubik"
     id="path836" /><path
     d="m 3322.3138,3400.72 q -17.4,0 -30.9,-7.8 -13.2,-8.1 -20.7,-23.1 -7.2,-15.3 -7.2,-36.9 v -83.7 q 0,-3.3 2.1,-5.4 2.1,-2.1 5.1,-2.1 h 31.8 q 3.3,0 5.4,2.1 2.1,2.1 2.1,5.4 v 81.9 q 0,33.6 29.4,33.6 14.1,0 22.2,-8.7 8.4,-9 8.4,-24.9 v -81.9 q 0,-3.3 2.1,-5.4 2.1,-2.1 5.4,-2.1 h 31.8 q 3,0 5.1,2.1 2.1,2.1 2.1,5.4 v 141 q 0,3.3 -2.1,5.4 -2.1,2.1 -5.1,2.1 h -29.4 q -3.3,0 -5.4,-2.1 -2.1,-2.1 -2.1,-5.4 v -11.7 q -7.8,10.8 -20.1,16.5 -12.3,5.7 -30,5.7 z"
     style="font-weight:600;font-size:300px;font-family:Rubik-SemiBold, Rubik"
     id="path838" /><path
     d="m 3461.4716,3397.72 q -3,0 -5.1,-2.1 -2.1,-2.1 -2.1,-5.4 v -141 q 0,-3 2.1,-5.1 2.1,-2.4 5.1,-2.4 h 29.4 q 3,0 5.1,2.4 2.4,2.1 2.4,5.1 v 12 q 7.5,-9.3 18.3,-14.4 11.1,-5.1 25.5,-5.1 h 12.9 q 3,0 5.1,2.1 2.1,2.1 2.1,5.4 v 25.8 q 0,3.3 -2.1,5.4 -2.1,2.1 -5.1,2.1 h -26.4 q -13.2,0 -20.7,7.5 -7.5,7.2 -7.5,20.7 v 79.5 q 0,3.3 -2.1,5.4 -2.1,2.1 -5.4,2.1 z"
     style="font-weight:600;font-size:300px;font-family:Rubik-SemiBold, Rubik"
     id="path840" /><path
     d="m 3652.7778,3400.72 q -34.5,0 -54.9,-19.2 -20.1,-19.2 -21.3,-55.8 0,-2.4 0,-6.3 0,-4.2 0,-6.6 1.2,-23.1 10.5,-39.6 9.3,-16.8 26.1,-25.5 16.8,-9 39.3,-9 25.2,0 42,10.5 17.1,10.2 25.5,28.2 8.7,17.7 8.7,40.8 v 6.9 q 0,3 -2.4,5.1 -2.1,2.1 -5.1,2.1 h -98.1 q 0,0.3 0,1.2 0,0.6 0,1.2 0.3,9.6 3.6,17.7 3.6,7.8 9.9,12.6 6.6,4.8 15.6,4.8 7.5,0 12.3,-2.1 4.8,-2.1 7.8,-5.1 3.3,-3 4.8,-5.1 2.7,-3 4.2,-3.6 1.8,-0.9 5.4,-0.9 h 31.2 q 3,0 4.8,1.8 2.1,1.5 1.8,4.5 -0.3,4.8 -5.1,12 -4.5,6.9 -13.5,13.8 -9,6.6 -22.5,11.1 -13.2,4.5 -30.6,4.5 z m -29.7,-95.7 h 58.8 v -0.6 q 0,-10.8 -3.6,-18.6 -3.3,-8.1 -9.9,-12.6 -6.6,-4.5 -15.9,-4.5 -9.3,0 -15.9,4.5 -6.6,4.5 -10.2,12.6 -3.3,7.8 -3.3,18.6 z"
     style="font-weight:600;font-size:300px;font-family:Rubik-SemiBold, Rubik"
     id="path842" /></g>

            <g
   aria-label="4"
   style="font-weight:600;font-size:300px;font-family:Rubik-SemiBold, Rubik;fill:#0d6efd"
   id="text4"><path
     d="m 3860.7201,3397.72 q -3,0 -5.1,-2.1 -2.1,-2.1 -2.1,-5.4 v -36 h -94.5 q -3,0 -5.1,-2.1 -2.1,-2.1 -2.1,-5.4 v -24.3 q 0,-2.1 0.9,-4.5 0.9,-2.4 2.4,-4.5 l 87.9,-120.6 q 3.9,-5.1 11.1,-5.1 h 38.1 q 3,0 5.1,2.1 2.1,2.1 2.1,5.4 v 119.1 h 26.7 q 3.6,0 5.4,2.1 2.1,2.1 2.1,5.1 v 25.2 q 0,3.3 -2.1,5.4 -2.1,2.1 -5.1,2.1 h -27 v 36 q 0,3.3 -2.1,5.4 -2.1,2.1 -5.1,2.1 z m -62.4,-81.9 h 56.1 v -78.9 z"
     style="fill:#ffffff;fill-opacity:1"
     id="path845" /></g>

            <g
   aria-label="U"
   style="font-weight:600;font-size:300px;font-family:Rubik-SemiBold, Rubik"
   id="text6"><path
     d="m 4051.22,3400.72 q -26.4,0 -46.2,-8.7 -19.8,-9 -30.6,-27.3 -10.8,-18.6 -10.8,-47.1 v -122.4 q 0,-3.3 2.1,-5.4 2.1,-2.1 5.4,-2.1 h 32.7 q 3.3,0 5.4,2.1 2.1,2.1 2.1,5.4 v 122.1 q 0,22.2 10.5,33 10.5,10.8 29.4,10.8 18.6,0 29.1,-10.8 10.5,-10.8 10.5,-33 v -122.1 q 0,-3.3 2.1,-5.4 2.4,-2.1 5.4,-2.1 h 33 q 3,0 5.1,2.1 2.1,2.1 2.1,5.4 v 122.4 q 0,28.5 -10.8,47.1 -10.8,18.3 -30.3,27.3 -19.5,8.7 -46.2,8.7 z"
     style="font-weight:600;font-size:300px;font-family:Rubik-SemiBold, Rubik"
     id="path848" /></g>

        </g>
        <g
   transform="matrix(0.823223,0,0,0.823223,2562.28,2303.81)"
   id="g12">
            <circle
   cx="2094.16"
   cy="2953.26"
   r="263.98"
   style="fill:#ffffff;fill-opacity:1"
   id="circle10" />
        </g>
        <g
   transform="matrix(2.62866e-16,4.29292,-5.40246,3.30806e-16,18738,-7279)"
   id="g16">
            <path
   d="M2831.85,2656.34C2825.28,2657.49 2818.6,2657.45 2811.8,2656.34L2811.8,2686.69L2831.85,2686.69L2831.85,2656.34Z"
   style="fill:rgb(206,206,206);"
   id="path14" />
        </g>
        <g
   transform="matrix(2.55889e-16,4.17898,-5.31079,3.25192e-16,18509.7,-6954.71)"
   id="g20">
            <path
   d="M2828.48,2683.97C2829.96,2682.39 2835.03,2681.34 2834.22,2683.45C2833.4,2685.57 2831.93,2687.29 2829.81,2688.62C2827.69,2689.95 2824.9,2690.61 2821.45,2690.61C2818.1,2690.61 2815.35,2690.03 2813.22,2688.88C2811.09,2687.72 2809.04,2685.96 2808.13,2683.77C2807.22,2681.58 2811.76,2680.16 2812.02,2681.69C2812.34,2683.57 2813.86,2684.82 2815.61,2685.5C2817.17,2686.1 2819,2686.34 2821.03,2686.34C2824.52,2686.34 2827,2685.55 2828.48,2683.97Z"
   style="fill-opacity:0.23;fill-rule:nonzero;"
   id="path18" />
        </g>
        <g
   transform="matrix(1,0,0,1,523.929,32.2291)"
   id="g24">
            <path
   d="M3675.22,4821.94C3674.8,4821.03 3674.47,4820.06 3674.26,4819.03L3633.67,4627.21C3633.65,4627.15 3633.64,4627.09 3633.63,4627.03C3625,4583.37 3644.72,4559.91 3654.27,4551.68C3658.69,4547.87 3662.41,4546.41 3663.67,4546.06C3667.37,4545.05 3671.31,4545.59 3674.59,4547.58C3677.87,4549.56 3680.18,4552.81 3680.99,4556.55L3720.44,4739.33L3873.08,4739.85C3880.76,4739.88 3886.98,4746.14 3886.95,4753.82C3886.93,4761.51 3880.67,4767.72 3872.98,4767.7L3726.15,4767.19C3725.69,4767.33 3725.21,4767.43 3724.7,4767.5C3716.2,4768.62 3710.57,4774.08 3707.5,4780.33C3704.55,4786.34 3703.47,4793.4 3703.47,4801.25C3703.47,4814.27 3706.94,4823.66 3714.45,4829.2C3722.12,4834.86 3736.67,4837.51 3757.99,4837.7C3758.6,4837.62 3759.22,4837.58 3759.85,4837.58L3873.03,4837.58C3880.72,4837.58 3886.95,4843.82 3886.95,4851.5C3886.95,4859.19 3880.72,4865.42 3873.03,4865.42L3759.85,4865.42C3759.48,4865.42 3759.11,4865.41 3758.74,4865.38C3739.91,4865.28 3724.89,4863.51 3713.69,4860.11C3701.65,4856.47 3691.87,4849.88 3684.32,4840.38C3680.16,4835.13 3677.11,4828.99 3675.22,4821.94Z"
   style="fill-rule:nonzero;"
   id="path22" />
        </g>
        <g
   transform="matrix(0.537113,0,0.116164,0.537113,2179.07,2392.6)"
   id="g28"
   style="fill:#0d6efd;fill-opacity:1">
            <g
   aria-label="4"
   style="font-weight:500;font-size:300px;font-family:Rubik-Medium, Rubik;fill:#0d6efd;fill-opacity:1"
   id="text26"><path
     d="m 3058.23,4348.7598 q -3,0 -5.1,-2.1 -2.1,-2.1 -2.1,-5.1 v -38.4 h -95.1 q -3.3,0 -5.4,-2.1 -1.8,-2.1 -1.8,-5.1 v -20.4 q 0,-1.8 0.6,-4.2 0.9,-2.7 2.7,-4.8 l 88.5,-122.7 q 3.9,-5.1 11.1,-5.1 h 32.7 q 3,0 5.1,2.1 2.1,2.1 2.1,5.1 v 121.8 h 26.7 q 3.6,0 5.4,2.1 2.1,1.8 2.1,5.1 v 21 q 0,3 -2.1,5.1 -2.1,2.1 -5.1,2.1 h -27 v 38.4 q 0,3 -2.1,5.1 -2.1,2.1 -5.1,2.1 z m -67.8,-79.8 h 61.5 v -86.7 z"
     style="font-weight:500;font-size:300px;font-family:Rubik-Medium, Rubik;fill:#0d6efd;fill-opacity:1"
     id="path827" /></g>

        </g>
    </g>
</svg>